<svg width="1200" height="600" xmlns="http://www.w3.org/2000/svg">
  <defs>
    <linearGradient id="heroGrad" x1="0%" y1="0%" x2="100%" y2="100%">
      <stop offset="0%" style="stop-color:#FFEDE7;stop-opacity:1" />
      <stop offset="100%" style="stop-color:#FFF8F0;stop-opacity:1" />
    </linearGradient>
  </defs>
  <rect width="100%" height="100%" fill="url(#heroGrad)"/>
  <g transform="translate(600,300)">
    <!-- Large pepper icon -->
    <path d="M-40,-60 Q-60,-40 -50,-10 Q-40,20 -20,30 Q0,35 20,30 Q40,20 50,-10 Q60,-40 40,-60 Q20,-70 0,-65 Q-20,-70 -40,-60 Z" fill="#B71C1C" opacity="0.6"/>
    <!-- Smaller peppers -->
    <path d="M-80,-20 Q-90,-10 -85,5 Q-80,20 -70,25 Q-60,27 -50,25 Q-40,20 -35,5 Q-30,-10 -40,-20 Q-50,-25 -60,-23 Q-70,-25 -80,-20 Z" fill="#FF6D00" opacity="0.4"/>
    <path d="M50,-30 Q40,-20 45,-5 Q50,10 60,15 Q70,17 80,15 Q90,10 95,-5 Q100,-20 90,-30 Q80,-35 70,-33 Q60,-35 50,-30 Z" fill="#F57C00" opacity="0.4"/>
  </g>
  <text x="600" y="400" text-anchor="middle" font-family="serif" font-size="48" font-weight="bold" fill="#B71C1C" opacity="0.5">Hero Image Placeholder</text>
  <text x="600" y="450" text-anchor="middle" font-family="sans-serif" font-size="24" fill="#757575" opacity="0.7">1200 × 600 • Perfect for Hero Sections</text>
</svg>